Coordinates
version=1
nRows=13
nColumns=40
inDegrees=yes

Units are S.I. units (second, meters, Newtons, ...)
Angles are in degrees.

endheader
time	pelvis_tilt	pelvis_list	pelvis_rotation	pelvis_tx	pelvis_ty	pelvis_tz	hip_flexion_r	hip_adduction_r	hip_rotation_r	knee_angle_r	knee_angle_r_beta	ankle_angle_r	subtalar_angle_r	mtp_angle_r	hip_flexion_l	hip_adduction_l	hip_rotation_l	knee_angle_l	knee_angle_l_beta	ankle_angle_l	subtalar_angle_l	mtp_angle_l	lumbar_extension	lumbar_bending	lumbar_rotation	arm_flex_r	arm_add_r	arm_rot_r	elbow_flex_r	pro_sup_r	wrist_flex_r	wrist_dev_r	arm_flex_l	arm_add_l	arm_rot_l	elbow_flex_l	pro_sup_l	wrist_flex_l	wrist_dev_l
      0.73000000	      0.75398578	      6.79722640	     -4.30302353	     -0.76845320	      0.93403887	     -1.00588021	    -15.35811981	    -12.75844104	    -21.32194353	    -20.36322802	     -0.35540538	      7.37913531	     13.28823106	    -15.29580473	     19.50059496	     -1.46371282	     21.56897129	    -13.23631164	     -0.23101722	     -6.55028520	      1.57958889	      3.81848433	     -3.77821196	     -9.04219746	      8.21836923	      9.32245086	    -12.19981256	    -14.32342146	     28.56423398	     89.95437384	      0.00000000	      0.00000000	    -14.15178911	     12.75915758	     18.21096038	      9.53861353	     89.95437384	      0.00000000	      0.00000000
      0.74000000	      0.84622573	      7.25044204	     -4.27195242	     -0.75746751	      0.93441847	     -1.00930675	    -15.45323221	    -13.80238163	    -21.41034161	    -21.61642937	     -0.37727786	      6.25278119	     12.99016669	    -14.81511256	     19.50801194	     -1.98163155	     21.27583313	    -14.86588525	     -0.25945864	     -5.87356824	      1.69157463	      3.28177527	     -3.54882354	     -9.45353525	      8.09225081	      8.90767867	    -12.06479728	    -14.51028879	     28.14117654	     89.95437384	      0.00000000	      0.00000000	    -14.11042608	     12.69271751	     17.83312147	      9.20285274	     89.95437384	      0.00000000	      0.00000000
      0.75000000	      0.80144494	      7.69384538	     -4.18694327	     -0.74641950	      0.93481857	     -1.01279594	    -15.19095678	    -14.92727779	    -21.66749068	    -23.26092835	     -0.40597979	      4.68807291	     12.86966244	    -14.27465795	     19.53074836	     -2.65131148	     20.59538122	    -16.05721481	     -0.28025127	     -5.30217382	      1.47345950	      2.75390989	     -3.15838622	     -9.83701266	      7.98859920	      8.35989305	    -11.85876615	    -15.03981257	     27.77977247	     89.95437384	      0.00000000	      0.00000000	    -14.04830191	     12.65007259	     17.41862270	      8.97234880	     89.95437384	      0.00000000	      0.00000000
      0.76000000	      0.80379295	      7.88966070	     -4.01544037	     -0.73559958	      0.93558831	     -1.01613929	    -14.95566198	    -15.58157859	    -21.32217123	    -24.76863380	     -0.43229421	      3.30120609	     12.42540765	    -13.69017138	     19.43123609	     -3.16763230	     19.63654620	    -17.06621115	     -0.29786158	     -5.19362627	      1.35470141	      2.50184880	     -2.90353398	     -9.96584798	      7.76154658	      7.72231204	    -11.71119095	    -15.30183085	     27.66339398	     89.95437384	      0.00000000	      0.00000000	    -14.11741416	     12.54554633	     17.10117642	      9.19433267	     89.95437384	      0.00000000	      0.00000000
      0.77000000	      0.31765740	      9.16010123	     -3.69717926	     -0.72455201	      0.93573741	     -1.02095919	    -13.76367237	    -18.12721530	    -22.99253775	    -27.49210270	     -0.47982771	      1.36367251	     13.92214726	    -13.30246251	     19.43999645	     -5.40385023	     17.66662712	    -16.89024305	     -0.29479035	     -4.91720405	      4.81776068	      1.49422350	     -1.94102105	    -11.16161673	      7.69156875	      7.11970638	    -11.32583134	    -16.81242572	     26.90073295	     89.95437384	      0.00000000	      0.00000000	    -13.88821850	     12.66423108	     15.76119783	      8.84581965	     89.95437384	      0.00000000	      0.00000000
      0.78000000	      0.45030094	      9.27055705	     -3.51691842	     -0.71361476	      0.93696021	     -1.02420234	    -13.37037948	    -18.81582528	    -22.92287968	    -29.34882331	     -0.51223360	     -1.13234349	     13.04677481	    -12.54269681	     18.93974424	     -5.88210575	     17.11875471	    -17.54225384	     -0.30617009	     -4.15554972	      5.05896592	      1.17543730	     -1.79464387	    -11.18930713	      7.46503398	      6.50317785	    -11.26559466	    -16.72186661	     26.55518067	     89.95437384	      0.00000000	      0.00000000	    -13.65240579	     12.59139835	     15.28628171	      8.74083152	     89.95437384	      0.00000000	      0.00000000
      0.79000000	      0.38772572	      9.72414212	     -3.29436169	     -0.70288261	      0.93796522	     -1.02801762	    -12.60412126	    -19.95460469	    -22.85490574	    -31.35139066	     -0.54718499	     -4.16344222	     12.15669896	    -11.68834119	     18.46044715	     -6.89813881	     16.33624997	    -17.69530306	     -0.30884130	     -3.58666886	      5.95324010	      0.93639078	     -1.40483132	    -11.54321157	      7.17748754	      5.88898574	    -11.17743415	    -16.85916692	     26.21875590	     89.95437384	      0.00000000	      0.00000000	    -13.37441802	     12.51201910	     14.73482015	      8.56600995	     89.95437384	      0.00000000	      0.00000000
      0.80000000	      0.20859587	     10.51638457	     -3.06712245	     -0.69302051	      0.93889637	     -1.03194136	    -11.36068352	    -21.51805292	    -22.51763873	    -33.86440962	     -0.59104545	     -6.71999763	     11.46224741	    -10.63115742	     17.81539468	     -8.58981096	     14.44960760	    -17.00365705	     -0.29676980	     -3.42350739	      9.14042844	      0.80275346	     -0.99702743	    -12.28243447	      6.99307669	      5.33899654	    -10.99258509	    -17.32933207	     25.79691019	     89.95437384	      0.00000000	      0.00000000	    -13.02526786	     12.54087876	     13.88926214	      8.71431580	     89.95437384	      0.00000000	      0.00000000
      0.81000000	      0.20636205	     10.67889692	     -2.82664263	     -0.68315727	      0.94008598	     -1.03522276	    -10.44216408	    -22.15600172	    -21.92127045	    -35.78159474	     -0.62450664	     -9.75835207	     10.61892009	     -9.78613759	     17.12084876	     -9.15756397	     14.08381836	    -16.97148929	     -0.29620837	     -2.72653688	      9.02924254	      0.61928787	     -0.85137703	    -12.36447644	      6.65724627	      4.83998986	    -10.98400493	    -17.04993948	     25.40925328	     89.95437384	      0.00000000	      0.00000000	    -12.53373199	     12.45300598	     13.56597073	      8.69161433	     89.95437384	      0.00000000	      0.00000000
      0.82000000	     -0.04524317	     11.03030235	     -2.70672048	     -0.67404787	      0.94083273	     -1.03837350	     -8.79686684	    -22.98009419	    -20.75335670	    -38.30201954	     -0.66849635	    -11.74687636	      9.34766837	     -9.06804664	     16.63742801	     -9.95174508	     13.49455899	    -16.62199247	     -0.29010850	     -2.36782303	      9.74677328	      0.64412299	     -0.47111171	    -12.64040720	      6.46232846	      4.39452802	    -10.87464582	    -17.11367218	     25.06293294	     89.95437384	      0.00000000	      0.00000000	    -12.03401920	     12.37324888	     13.34371698	      8.85729164	     89.95437384	      0.00000000	      0.00000000
      0.83000000	     -0.37164923	     11.23985575	     -2.56202302	     -0.66551021	      0.94143205	     -1.04145094	     -6.88909633	    -23.57468260	    -19.35012935	    -41.01298654	     -0.71581165	    -12.95330143	      8.51065232	     -8.47940778	     16.29812333	    -10.57848064	     12.76258827	    -16.37106700	     -0.28572902	     -1.84481874	     10.52814495	      0.79022213	     -0.11431673	    -12.77434464	      6.21377413	      4.04900824	    -10.81971795	    -17.15142954	     24.62930523	     89.95437384	      0.00000000	      0.00000000	    -11.40068739	     12.25878036	     13.33013606	      9.02469991	     89.95437384	      0.00000000	      0.00000000
      0.84000000	     -0.50262574	     11.34785875	     -2.52069186	     -0.65695464	      0.94223280	     -1.04408690	     -5.16123356	    -24.06699748	    -18.23284417	    -43.59503116	     -0.76087683	    -14.14123450	      7.02724504	     -8.08773121	     15.72670245	    -10.95098831	     12.56619552	    -16.14975863	     -0.28186646	     -1.29112621	     10.25820006	      0.73157335	      0.00784554	    -12.81145189	      5.98446568	      3.72311366	    -10.75458065	    -17.12759750	     24.32044538	     89.95437384	      0.00000000	      0.00000000	    -10.74879574	     12.13237564	     13.27243558	      9.25218538	     89.95437384	      0.00000000	      0.00000000
      0.85000000	     -1.01417147	     11.47665590	     -2.59777508	     -0.64912175	      0.94235449	     -1.04653883	     -2.62320531	    -24.58479243	    -17.04025928	    -46.50538154	     -0.81167203	    -14.40863424	      4.22753131	     -7.84531696	     15.67308558	    -11.30303783	     12.45581011	    -15.94873000	     -0.27835785	     -0.95937195	     10.64820359	      0.82954592	      0.53567982	    -12.83480946	      5.88057343	      3.44300252	    -10.66176958	    -17.26556330	     24.00760233	     89.95437384	      0.00000000	      0.00000000	    -10.10812180	     11.96084621	     13.38854861	      9.56580835	     89.95437384	      0.00000000	      0.00000000
